<svg id="Grupo_3" data-name="Grupo 3" xmlns="http://www.w3.org/2000/svg" xmlns:xlink="http://www.w3.org/1999/xlink" width="330.56" height="48.853" viewBox="0 0 330.56 48.853">
  <defs>
    <clipPath id="clip-path">
      <rect id="Retângulo_1" data-name="Retângulo 1" width="330.56" height="48.853" transform="translate(0 0)" fill="none"/>
    </clipPath>
  </defs>
  <g id="Grupo_2" data-name="Grupo 2" clip-path="url(#clip-path)">
    <path id="Caminho_1" data-name="Caminho 1" d="M16.5,23.2c.8,2.25.6,5.3.6,7.7h1.4c0-2.35-.15-5.45.6-7.7L26.6,1.3h9l-12.9,35H12.9L0,1.3H9Z"/>
    <path id="Caminho_2" data-name="Caminho 2" d="M48.25,37.052c-5.15,0-10.15-2.95-10.15-8.6V11.3h7.85v12.25c0,5.15,2.45,6.7,5.8,6.7,3.65,0,5.3-2.1,5.3-6.7V11.3h7.9v25h-7.9l.05-.7c0-1.55,1.05-3.3,1.6-4.75l-1.25-.5c-.6,1.45-.85,3.55-2,4.65-1.85,1.75-3.651,2.05-7.2,2.05"/>
    <path id="Caminho_3" data-name="Caminho 3" d="M90.6,10.551v7.3c-6.55,0-13.651,2.45-13.651,9.351v9.1H69.1v-25h7.85v0c-.05,2.4-1.3,5.2-2.35,7.351l1.25.6c1.05-2.2,2.15-5.3,4.2-6.6,2.95-1.75,6.151-2.1,10.551-2.1"/>
    <path id="Caminho_4" data-name="Caminho 4" d="M107.05,37.1A13.093,13.093,0,0,1,93.7,23.651c0-7.45,5.5-13.1,13.351-13.1A11.639,11.639,0,0,1,115.5,13.7c1.05,1.05,1.25,3.15,1.8,4.55l1.25-.5c-.5-1.4-1.55-3.05-1.65-4.55l-.1-1.9h7.9V37c-.05,6.8-4.6,11.8-16.151,11.8-9.3,0-14-4.4-14.651-10.7h8.5c.95,2.7,2.05,3.45,6.05,3.45,5.451,0,8.351-1.9,8.351-5.751,0-.6,0-1.1.05-1.65.1-1.45,1.2-3.1,1.7-4.45l-1.3-.5c-.5,1.4-.65,3.45-1.7,4.5a11.427,11.427,0,0,1-8.5,3.4m1.15-7.6c4.2,0,6.451-1.95,6.7-4.95v-1c-.25-3-2.5-5.35-6.7-5.35-4.35,0-6.65,2.551-6.65,5.85,0,3.251,2.3,5.451,6.65,5.451"/>
    <path id="Caminho_5" data-name="Caminho 5" d="M128.048,23.651c0-7.45,6.5-13.1,15.7-13.1,9.451,0,15.3,6.2,15.251,13.2v2.2L137.9,25.9c0,2.2,2.1,4.7,6.4,4.7,2.75,0,4.45-.75,4.95-1.45h9.2c-.75,2.6-4.8,7.95-13.4,7.95-11,0-17-6-17-13.451M149.6,21.3c0-2.9-2.15-4.9-5.65-4.9-3.55,0-6.051,2.25-6.051,4.9Z"/>
    <path id="Caminho_6" data-name="Caminho 6" d="M183.8,10.551v7.3c-6.55,0-13.651,2.45-13.651,9.351v9.1H162.3v-25h7.85v0c-.05,2.4-1.3,5.2-2.35,7.351l1.25.6c1.05-2.2,2.15-5.3,4.2-6.6,2.95-1.75,6.151-2.1,10.551-2.1"/>
    <path id="Caminho_7" data-name="Caminho 7" d="M225.149,10.951c-3.5-2.75-7.15-3.65-11.9-3.65-2.4,0-4.35.95-4.35,2.4,0,4.25,23.2,3.55,23.2,16.551,0,6.15-7,10.8-18.2,10.8-6.1,0-9.9-1.25-15.351-6.351l5.65-5.3c2.951,2.4,4.9,3.85,11.2,3.85,3.7,0,5.851-1.25,5.851-3.1,0-5.1-21.7-5-21.7-16,0-5.15,6.351-9.6,16.051-9.6,4.9,0,9.451,1.049,15.051,4.9Z"/>
    <path id="Caminho_8" data-name="Caminho 8" d="M253.249,10.551c5.049,0,8.9,2.9,8.9,8.6V36.3h-7.9V24.852c0-4.35-1.451-6.251-4.55-6.251-3.4,0-6.2,1.95-6.2,6.251V36.3h-7.9V0h7.9V11.2c0,2.45-1.25,5.35-2.151,7.65l1.25.5c.9-2.3,1.7-5.6,3.651-7.1,1.9-1.3,4.1-1.7,7-1.7"/>
    <path id="Caminho_9" data-name="Caminho 9" d="M281.4,10.551c9.3,0,15.151,5.4,15.151,13.3S290.7,37.1,281.4,37.1c-9.35,0-15.2-4.8-15.2-13.25s5.851-13.3,15.2-13.3m-.05,18.9c5.1,0,6.7-2.45,6.7-5.6s-1.6-5.7-6.7-5.7-6.65,2.55-6.65,5.7,1.55,5.6,6.65,5.6"/>
    <path id="Caminho_10" data-name="Caminho 10" d="M308.8,48.8l-7.9.049V11.35l7.9-.05v1.8c0,1.5-.95,3.2-1.45,4.649l1.3.4c.5-1.4.6-3.5,1.65-4.6A10.18,10.18,0,0,1,318,10.5a12.371,12.371,0,0,1,12.551,13.251c-.25,7-5.5,13.3-12.5,13.3a10.574,10.574,0,0,1-7.7-3.25c-1.05-1.051-1.25-3.151-1.75-4.551l-1.3.45c.5,1.45,1.5,3.15,1.5,4.65Zm1.85-25.2a5.828,5.828,0,0,0,5.95,6.15,5.909,5.909,0,0,0,6.05-6.15c0-3.35-2.35-5.8-6.05-5.8a5.552,5.552,0,0,0-5.95,5.8"/>
  </g>
</svg>